<?xml version="1.0" standalone="no"?>
<!DOCTYPE svg PUBLIC "-//W3C//DTD SVG 20010904//EN"
 "http://www.w3.org/TR/2001/REC-SVG-20010904/DTD/svg10.dtd">
<svg version="1.0" xmlns="http://www.w3.org/2000/svg"
 width="2674.000000pt" height="2674.000000pt" viewBox="0 0 2674.000000 2674.000000"
 preserveAspectRatio="xMidYMid meet">
<metadata>
Created by potrace 1.11, written by Peter Selinger 2001-2013
</metadata>
<g transform="translate(0.000000,2674.000000) scale(0.100000,-0.100000)"
fill="#000000" stroke="none">
<path d="M13211 26650 c-84 -50 -155 -90 -156 -90 -1 0 -44 -25 -94 -55 -51
-30 -94 -55 -97 -55 -2 0 -21 -11 -42 -24 -30 -19 -921 -534 -1052 -609 -19
-10 -107 -61 -195 -112 -88 -51 -176 -102 -195 -113 -19 -10 -132 -75 -250
-144 -267 -155 -962 -556 -1105 -638 -16 -10 -97 -56 -178 -104 -82 -47 -151
-86 -153 -86 -2 0 -21 -11 -42 -24 -35 -22 -104 -63 -652 -378 -129 -75 -251
-145 -270 -157 -19 -11 -46 -26 -60 -33 -14 -7 -52 -29 -85 -49 -33 -20 -141
-83 -240 -139 -99 -57 -232 -134 -295 -171 -95 -55 -361 -208 -485 -279 -132
-76 -263 -152 -275 -160 -8 -6 -22 -13 -30 -17 -8 -4 -58 -32 -110 -63 -52
-31 -102 -59 -110 -63 -8 -4 -28 -15 -45 -26 -29 -17 -917 -530 -1245 -719
-91 -52 -169 -98 -175 -102 -5 -4 -30 -19 -55 -32 -25 -14 -77 -44 -117 -67
-39 -22 -87 -49 -105 -60 -18 -10 -73 -42 -123 -71 -49 -29 -105 -61 -123 -71
-72 -41 -242 -139 -422 -244 -30 -17 -248 -143 -485 -280 -236 -136 -443 -257
-460 -269 -16 -11 -30 -19 -30 -17 0 3 -11 -2 -25 -11 -26 -16 -304 -176 -725
-418 -137 -79 -261 -150 -275 -159 -14 -9 -53 -32 -87 -51 -69 -38 -329 -189
-402 -232 -25 -15 -73 -42 -105 -60 -32 -18 -66 -38 -75 -43 -9 -6 -51 -30
-94 -55 l-77 -44 2 -6689 3 -6689 95 -55 c52 -31 115 -67 140 -81 25 -14 103
-59 174 -100 72 -41 144 -82 160 -92 17 -9 189 -109 381 -220 193 -112 366
-212 385 -223 19 -11 107 -61 195 -112 611 -353 945 -545 974 -562 l35 -19
230 134 c127 73 254 146 281 161 28 16 158 91 290 168 132 76 249 144 260 150
11 7 54 32 95 56 41 24 96 55 121 69 25 14 164 94 310 178 145 84 377 218 514
298 138 79 293 169 345 199 l95 55 0 3749 c0 2062 0 3749 1 3749 1 0 506 -291
724 -418 52 -30 111 -64 130 -75 19 -11 179 -103 355 -204 176 -102 394 -228
485 -280 91 -52 190 -110 220 -128 30 -18 75 -44 100 -57 25 -14 128 -74 230
-133 101 -58 202 -117 225 -129 22 -13 90 -52 151 -88 61 -36 117 -68 125 -71
8 -4 28 -15 44 -26 17 -10 89 -52 162 -94 73 -42 308 -178 523 -302 214 -124
409 -236 433 -249 l42 -24 0 -5219 0 -5218 25 -14 c14 -8 93 -54 177 -102 83
-49 167 -97 185 -107 59 -34 996 -575 1040 -601 15 -9 94 -54 175 -101 81 -46
204 -117 272 -157 67 -40 124 -73 126 -73 1 0 54 -30 116 -66 63 -37 134 -78
159 -92 25 -14 72 -41 105 -61 33 -20 85 -49 115 -65 l55 -28 215 124 c118 69
321 186 450 260 129 75 251 145 270 157 19 11 51 29 70 39 19 11 103 58 185
107 83 48 175 101 205 117 30 17 60 34 65 38 8 7 77 46 380 220 17 10 102 59
190 110 453 262 632 365 650 375 11 5 31 17 45 26 14 9 122 71 240 139 118 68
235 135 260 150 25 15 108 63 185 107 289 166 592 342 626 362 19 11 40 24 48
27 7 4 50 28 95 54 170 99 408 237 596 345 107 62 246 142 309 179 62 36 115
66 117 66 2 0 36 20 76 44 60 36 838 486 958 554 19 11 177 102 350 202 173
100 331 192 350 202 229 131 322 185 360 208 25 15 210 122 412 238 201 116
386 223 410 237 23 13 79 45 123 70 44 25 87 50 95 55 14 10 721 418 805 465
22 13 81 46 130 75 50 29 108 63 130 75 22 13 225 130 450 260 226 131 469
271 540 312 72 41 137 79 145 84 26 15 162 94 220 126 30 17 226 130 435 251
l380 220 3 1470 c2 1168 -1 1472 -10 1480 -7 5 -35 22 -63 36 -27 15 -57 31
-65 37 -33 21 -291 169 -294 169 -2 0 -33 17 -67 38 -62 37 -372 217 -684 396
-82 47 -161 93 -175 101 -36 21 -494 286 -538 311 -20 11 -113 65 -207 119
-93 54 -230 133 -304 176 l-133 76 -117 -67 c-64 -37 -192 -111 -286 -165 -93
-54 -253 -146 -355 -205 -212 -122 -574 -331 -800 -462 -85 -50 -175 -101
-200 -116 -25 -14 -205 -117 -400 -230 -523 -302 -522 -302 -528 -302 -3 0
-13 -6 -21 -14 -9 -7 -41 -27 -71 -44 -30 -16 -138 -78 -240 -137 -210 -122
-235 -137 -287 -166 -21 -12 -112 -64 -203 -117 -91 -52 -181 -104 -200 -115
-19 -11 -91 -52 -160 -92 -96 -56 -591 -342 -874 -505 -40 -23 -501 -289 -956
-552 -472 -273 -750 -433 -776 -446 l-22 -11 2 2280 1 2280 165 95 c91 53 183
106 205 118 22 13 261 150 530 306 270 156 504 291 520 300 75 43 438 253 607
351 103 60 192 109 197 109 5 0 11 3 13 8 2 4 104 65 228 136 124 71 237 136
252 145 14 9 57 34 95 55 37 21 109 63 158 92 95 55 646 373 705 407 19 10
123 70 230 132 107 62 211 122 230 133 19 10 219 126 443 256 225 130 413 236
418 236 5 0 9 5 9 10 0 6 4 10 9 10 5 0 132 71 283 158 150 87 422 244 603
349 790 456 1102 637 1133 654 125 72 219 126 647 374 264 152 494 285 510
295 17 9 131 75 255 147 124 71 307 176 407 234 l182 104 1 1473 0 1472 -22
10 c-13 6 -39 20 -58 31 -33 20 -454 263 -530 307 -51 29 -409 236 -450 261
-19 11 -51 29 -70 39 -19 10 -89 50 -155 89 -66 39 -282 164 -480 278 -198
114 -376 216 -395 227 -45 27 -215 125 -260 151 -19 11 -57 33 -85 49 -27 16
-57 33 -65 38 -18 11 -222 129 -283 164 -65 36 -498 287 -532 307 -16 11 -37
22 -45 26 -8 4 -37 20 -65 36 -27 17 -63 37 -80 47 -16 9 -104 60 -195 112
-91 53 -181 105 -201 116 -20 11 -144 83 -275 159 -132 77 -248 145 -259 151
-11 6 -118 68 -238 137 -120 69 -237 136 -260 149 -23 13 -120 69 -216 125
-95 56 -175 101 -177 101 -3 0 -21 11 -42 24 -35 22 -894 519 -992 574 -25 14
-81 46 -125 72 -44 26 -213 124 -375 217 -162 94 -356 205 -430 248 -74 43
-220 128 -325 188 -104 60 -203 117 -220 127 -159 91 -508 293 -580 335 -49
29 -238 138 -420 243 -181 104 -386 222 -455 262 -69 40 -145 84 -170 98 -25
13 -76 44 -115 67 -38 23 -95 55 -125 72 -53 29 -463 266 -525 304 -16 10 -52
30 -80 45 -27 14 -62 35 -77 45 -14 11 -29 19 -32 19 -4 0 -39 20 -79 44 -39
24 -92 54 -117 68 -25 14 -101 58 -170 98 -68 40 -140 82 -160 93 -56 31 -356
205 -456 263 -50 30 -98 56 -105 59 -8 2 -83 -36 -168 -85z m499 -589 c63 -36
124 -71 135 -78 11 -7 26 -15 34 -19 7 -4 133 -76 278 -161 146 -84 266 -153
268 -153 1 0 43 -24 92 -54 49 -29 109 -64 133 -78 25 -14 149 -85 275 -158
127 -73 250 -144 275 -158 25 -13 50 -28 55 -32 6 -4 30 -19 55 -32 25 -14
203 -116 395 -228 592 -343 869 -502 900 -520 17 -9 107 -61 200 -115 426
-247 936 -541 995 -575 87 -49 888 -512 970 -560 66 -39 617 -357 680 -392 19
-11 134 -77 255 -147 121 -70 328 -190 460 -266 132 -76 292 -168 355 -205 63
-37 205 -119 315 -182 110 -64 216 -125 235 -137 19 -11 42 -24 50 -28 8 -4
55 -31 104 -60 49 -29 90 -53 91 -53 3 0 523 -299 555 -319 8 -5 76 -44 150
-87 74 -43 285 -164 468 -271 183 -106 352 -203 375 -216 23 -12 53 -30 67
-38 21 -14 861 -499 980 -566 81 -47 405 -235 408 -238 2 -1 -50 -33 -115 -70
-65 -38 -158 -92 -208 -120 -49 -29 -164 -95 -255 -148 -91 -52 -291 -168
-445 -257 -154 -90 -301 -175 -327 -189 -26 -14 -93 -53 -150 -86 -57 -33
-119 -69 -138 -80 -52 -29 -256 -147 -293 -169 -93 -54 -653 -377 -717 -413
-19 -11 -86 -50 -149 -87 -62 -36 -115 -66 -117 -66 -2 0 -27 -15 -56 -33 -29
-19 -60 -37 -68 -40 -8 -4 -22 -11 -30 -17 -14 -9 -196 -115 -278 -162 -83
-47 -177 -101 -302 -173 -523 -302 -649 -375 -680 -393 -19 -11 -91 -52 -160
-92 -69 -41 -141 -82 -160 -92 -19 -11 -48 -28 -65 -39 -16 -10 -37 -22 -45
-26 -8 -4 -51 -28 -95 -54 -44 -26 -96 -56 -115 -66 -19 -11 -80 -46 -135 -78
-327 -189 -669 -387 -725 -419 -36 -20 -72 -41 -80 -46 -8 -6 -141 -82 -295
-171 -154 -88 -300 -173 -325 -187 -25 -15 -61 -36 -81 -47 -32 -18 -282 -162
-361 -208 -63 -37 -744 -430 -778 -450 -39 -22 -285 -164 -485 -279 -116 -68
-473 -273 -550 -318 -16 -9 -106 -61 -200 -115 -93 -54 -237 -137 -320 -185
-595 -343 -915 -528 -1070 -618 -99 -58 -196 -114 -215 -125 -19 -10 -108 -62
-197 -113 l-162 -94 -158 91 c-87 50 -174 100 -193 111 -19 11 -107 62 -195
113 -88 51 -176 102 -195 113 -103 58 -450 259 -705 407 -159 93 -308 178
-330 190 -22 13 -123 71 -225 130 -102 59 -201 117 -220 127 -19 11 -107 62
-195 113 -88 51 -221 127 -295 170 -74 43 -148 85 -165 95 -138 80 -813 470
-1070 618 -175 101 -376 217 -445 257 -69 40 -330 191 -580 335 -250 145 -498
288 -550 318 -52 30 -113 65 -135 78 -22 12 -107 61 -190 109 -82 48 -170 99
-195 113 -25 14 -99 56 -165 95 -66 38 -133 77 -150 87 -110 63 -839 484
-1230 710 -192 111 -366 211 -385 222 -64 36 -694 400 -778 449 -45 27 -87 49
-92 49 -6 0 -10 5 -10 10 0 6 -4 10 -10 10 -5 0 -62 31 -127 69 -141 82 -306
177 -348 201 -16 9 -74 42 -127 73 -165 96 -275 159 -488 282 -113 65 -217
126 -232 136 -14 11 -29 19 -33 19 -3 0 -59 31 -123 68 -64 38 -225 131 -357
207 -132 76 -244 141 -248 145 -4 4 18 21 50 39 32 17 74 41 93 53 19 11 184
106 365 210 182 105 340 197 352 204 12 7 38 23 57 34 20 11 51 28 69 39 17
10 77 45 132 76 55 32 114 66 130 76 17 10 46 26 65 37 19 11 240 138 490 282
250 145 466 270 480 277 14 8 39 22 55 32 29 17 269 156 685 396 107 62 240
138 295 170 55 32 114 66 130 75 174 99 516 297 537 311 15 11 29 19 31 19 2
0 98 55 213 121 115 67 229 133 254 147 70 38 231 132 272 159 21 12 39 23 42
23 3 0 58 31 226 129 8 5 116 68 240 139 124 71 324 187 445 257 121 70 245
141 275 158 30 16 60 33 65 37 9 7 327 191 445 258 25 14 142 81 260 150 118
69 260 151 315 182 119 69 128 74 292 169 70 41 142 82 158 91 17 9 87 50 155
90 69 40 143 83 165 96 23 12 122 69 221 126 99 57 186 107 194 111 8 4 24 13
35 20 27 16 291 170 335 195 19 10 107 61 195 112 280 163 346 201 515 298
154 89 437 252 505 292 17 9 208 120 425 245 217 125 409 236 425 246 17 11
36 22 44 25 7 4 58 33 113 65 l100 57 111 -65 c62 -36 164 -95 227 -132z
m-10885 -6846 c198 -114 401 -231 450 -260 50 -29 108 -63 130 -75 22 -13 54
-31 70 -41 17 -10 41 -24 55 -32 43 -23 499 -287 625 -361 66 -39 131 -76 145
-83 14 -7 32 -17 40 -23 8 -5 71 -42 140 -81 69 -39 224 -129 345 -199 121
-70 236 -137 256 -148 44 -25 256 -147 454 -262 83 -48 173 -100 200 -115 28
-15 91 -51 140 -80 194 -114 392 -229 443 -256 28 -16 70 -40 92 -54 22 -14
41 -25 44 -25 3 0 99 -55 156 -90 24 -15 122 -71 160 -93 19 -10 109 -62 200
-115 91 -53 176 -102 190 -109 14 -8 39 -22 55 -32 17 -10 181 -105 365 -211
184 -106 442 -256 573 -332 131 -76 241 -138 245 -138 3 0 13 -6 21 -14 9 -8
39 -26 66 -41 28 -14 66 -36 85 -47 114 -66 300 -174 328 -190 65 -36 173 -99
717 -413 303 -175 564 -326 580 -335 17 -9 217 -125 445 -257 228 -132 609
-351 845 -488 237 -136 540 -312 675 -390 135 -78 265 -153 290 -167 139 -78
696 -402 704 -409 6 -6 13 -12582 7 -12641 -1 -6 -93 45 -476 267 -88 51 -176
102 -195 113 -108 60 -497 286 -505 292 -5 4 -32 20 -60 35 -27 15 -84 47
-125 71 -41 24 -183 106 -315 182 l-240 138 0 5218 0 5218 -260 150 c-143 82
-278 160 -300 173 -22 12 -139 80 -260 150 -121 70 -236 136 -255 147 -19 11
-72 42 -118 69 -45 27 -85 49 -88 49 -2 0 -23 12 -45 26 -32 20 -1702 986
-1883 1088 -86 49 -735 424 -816 472 -47 28 -92 54 -100 58 -8 4 -24 12 -35
19 -17 10 -133 77 -236 137 -95 54 -429 248 -555 321 -83 48 -169 97 -190 109
-21 12 -68 39 -104 60 -36 21 -81 47 -100 57 -19 11 -150 86 -290 168 -140 81
-329 190 -420 243 -91 52 -202 117 -248 144 -45 26 -84 48 -86 48 -2 0 -56 32
-120 70 -65 39 -119 70 -120 70 -2 0 -55 30 -117 66 -63 37 -127 74 -144 84
-16 9 -74 42 -128 73 -54 32 -99 57 -101 57 -2 0 -3 -2339 -4 -5197 0 -2859
-1 -5206 -1 -5216 -1 -18 -3 -18 -39 3 -20 13 -210 123 -422 245 -212 122
-419 242 -460 267 -41 24 -82 47 -90 51 -8 4 -33 18 -55 31 -179 104 -288 166
-291 166 -3 0 -17 9 -32 19 -15 10 -138 83 -274 161 l-248 142 0 52 c-1 66 -1
12532 0 12568 0 31 -48 56 615 -327z m21708 -754 l2 -1100 -95 -55 c-52 -30
-162 -93 -245 -141 -82 -48 -166 -96 -185 -107 -19 -11 -125 -72 -235 -136
-110 -64 -211 -122 -225 -129 -14 -8 -41 -23 -59 -34 -68 -40 -1007 -582
-1051 -607 -25 -14 -57 -33 -72 -43 -14 -11 -29 -19 -32 -19 -3 0 -54 -29
-113 -64 -60 -34 -214 -124 -343 -198 -129 -75 -307 -177 -395 -228 -88 -51
-180 -104 -205 -118 -25 -14 -78 -45 -118 -69 -41 -24 -75 -43 -78 -43 -2 0
-27 -15 -56 -33 -29 -19 -60 -37 -68 -40 -8 -4 -22 -11 -30 -17 -8 -5 -40 -24
-70 -41 -30 -17 -305 -176 -610 -352 -305 -176 -568 -328 -585 -337 -362 -209
-567 -328 -597 -347 -21 -12 -40 -23 -43 -23 -3 0 -22 -11 -43 -24 -31 -19
-353 -206 -472 -273 -19 -11 -79 -46 -132 -77 -54 -31 -142 -81 -195 -112 -54
-31 -170 -98 -258 -149 -88 -51 -176 -102 -195 -113 -47 -26 -477 -275 -517
-298 -17 -11 -62 -37 -100 -58 -133 -76 -1159 -669 -1238 -715 -44 -26 -87
-50 -95 -54 -8 -4 -22 -11 -30 -17 -8 -6 -69 -41 -135 -79 l-120 -69 0 -4107
c0 -2259 2 -4108 5 -4110 4 -2 441 246 580 330 14 8 105 61 203 117 98 57 193
111 210 122 18 10 196 113 397 229 201 116 451 260 555 320 105 61 262 151
350 202 346 199 814 469 890 514 44 26 87 50 95 54 8 4 31 17 50 28 19 12 136
80 260 151 124 72 246 144 273 159 26 16 49 29 52 29 2 0 56 31 121 70 64 38
118 70 119 70 2 0 70 39 152 86 165 96 392 228 438 254 26 15 233 134 330 190
17 10 145 84 285 165 140 81 275 159 300 173 25 14 212 122 415 240 204 118
388 224 410 237 22 12 144 81 270 155 127 73 244 141 260 150 17 10 118 68
225 130 257 149 309 179 347 201 92 53 953 550 983 568 19 11 51 29 70 40 20
10 114 65 209 120 96 56 176 100 178 97 3 -3 7 -2098 4 -2188 -1 -10 -95 -70
-278 -176 -153 -88 -350 -202 -438 -253 -88 -50 -173 -100 -190 -109 -16 -10
-133 -77 -260 -150 -126 -73 -243 -141 -260 -150 -16 -9 -185 -107 -375 -217
-190 -110 -390 -225 -445 -257 -55 -32 -107 -61 -115 -66 -21 -13 -264 -153
-545 -315 -132 -76 -280 -162 -330 -190 -162 -95 -659 -382 -700 -405 -22 -12
-157 -90 -300 -173 -415 -240 -567 -328 -615 -355 -25 -14 -139 -80 -255 -147
-221 -128 -556 -321 -590 -339 -11 -6 -31 -19 -45 -27 -14 -9 -250 -146 -525
-304 -275 -158 -540 -312 -590 -341 -49 -28 -279 -161 -510 -294 -231 -134
-553 -319 -714 -413 -162 -93 -309 -177 -325 -187 -17 -10 -119 -68 -226 -130
-107 -62 -249 -144 -315 -182 -66 -38 -127 -73 -135 -79 -8 -5 -98 -57 -200
-115 -102 -59 -222 -128 -268 -155 -45 -27 -84 -49 -86 -49 -2 0 -33 -17 -67
-38 -35 -22 -188 -110 -339 -197 -151 -86 -331 -190 -400 -230 -69 -40 -197
-114 -285 -165 -88 -51 -175 -101 -192 -112 l-33 -20 0 6325 0 6325 93 54 c50
29 108 62 127 73 51 29 256 147 291 168 58 33 725 418 789 455 25 14 77 44
115 67 39 22 77 44 85 48 8 4 31 17 50 28 55 33 1232 714 1364 789 17 9 74 42
126 73 158 91 732 423 770 444 20 11 92 53 160 93 69 40 134 78 145 84 38 22
246 141 273 157 37 22 418 242 462 266 19 11 149 86 289 167 351 204 570 330
611 353 19 11 78 45 130 75 52 30 120 69 150 87 30 17 62 35 70 41 8 5 74 42
145 83 72 41 200 115 285 165 233 134 398 229 575 332 510 294 641 370 840
485 256 148 270 157 350 202 33 19 67 38 75 43 15 9 153 89 220 128 19 11 64
36 100 57 36 21 84 48 107 61 23 13 108 63 190 110 81 48 162 95 180 105 17
10 134 77 260 150 125 72 242 139 258 149 68 39 211 122 225 130 8 5 143 83
300 173 157 90 357 206 445 257 88 51 180 104 205 118 25 14 54 31 64 38 11 8
21 12 23 10 3 -2 5 -499 6 -1105z m-19493 -3221 c250 -144 475 -274 500 -288
25 -13 81 -46 125 -72 44 -26 188 -110 320 -186 132 -75 292 -167 355 -204
l115 -66 1 -3744 c2 -3356 0 -3747 -14 -3762 -8 -10 -18 -18 -22 -18 -4 0 -49
-25 -99 -55 -51 -30 -94 -55 -96 -55 -2 0 -25 -13 -52 -29 -26 -16 -295 -172
-598 -346 -302 -175 -590 -341 -640 -370 -131 -76 -346 -200 -372 -214 l-23
-12 0 4857 0 4856 23 -14 c12 -8 227 -133 477 -278z m17434 -4675 c32 -19 60
-35 61 -35 2 0 36 -19 77 -43 40 -24 93 -55 118 -69 25 -14 133 -76 240 -138
107 -62 209 -121 225 -130 44 -25 208 -120 380 -220 83 -48 170 -98 195 -112
25 -14 144 -83 265 -153 121 -71 229 -133 240 -139 53 -29 58 -24 -130 -131
-22 -12 -80 -46 -130 -75 -49 -29 -106 -61 -125 -72 -19 -11 -75 -44 -125 -73
-49 -29 -108 -63 -130 -75 -22 -12 -114 -65 -205 -118 -91 -52 -178 -103 -195
-111 -16 -9 -31 -19 -33 -23 -2 -5 -7 -8 -12 -8 -5 0 -41 -19 -82 -43 -40 -24
-94 -55 -120 -70 -45 -25 -467 -268 -498 -287 -8 -5 -85 -49 -170 -98 -85 -50
-195 -113 -245 -142 -49 -29 -180 -104 -290 -168 -261 -150 -353 -203 -510
-294 -146 -85 -904 -522 -950 -548 -16 -10 -111 -64 -210 -122 -99 -57 -189
-109 -200 -116 -11 -6 -113 -65 -227 -131 -114 -66 -233 -135 -265 -152 -32
-18 -105 -60 -163 -94 -58 -34 -170 -99 -250 -145 -80 -46 -192 -111 -250
-145 -58 -33 -112 -64 -120 -68 -8 -4 -31 -17 -50 -28 -19 -12 -125 -73 -235
-137 -110 -63 -283 -164 -385 -223 -102 -58 -201 -116 -220 -126 -44 -25 -347
-200 -460 -266 -125 -73 -131 -76 -310 -179 -627 -360 -1026 -592 -1035 -599
-32 -31 -33 -22 -31 1093 l1 1102 160 94 c88 51 183 106 210 121 110 61 462
265 487 282 15 11 29 19 32 19 2 0 50 27 106 60 56 33 103 60 105 60 2 0 59
33 126 73 68 40 149 87 179 104 30 16 154 87 275 158 121 70 267 154 325 188
58 33 138 80 178 104 40 23 75 43 77 43 2 0 56 32 121 70 64 39 119 70 121 70
2 0 43 23 91 51 71 42 262 153 447 259 17 10 59 34 95 55 36 21 79 45 95 55
63 36 752 434 995 575 140 81 273 158 295 170 22 13 139 80 260 150 121 70
236 136 255 147 19 11 64 37 100 58 36 21 83 48 105 61 86 49 141 81 175 101
19 11 258 148 530 305 272 157 504 292 515 299 28 20 34 18 99 -21z"/>
<path d="M13310 24012 c-25 -16 -65 -39 -90 -52 -25 -14 -52 -30 -60 -36 -8
-6 -37 -24 -65 -38 -52 -28 -57 -31 -142 -83 -30 -18 -55 -33 -57 -33 -2 0
-71 -39 -153 -86 -81 -48 -251 -146 -378 -219 -126 -73 -270 -156 -320 -185
-49 -29 -108 -62 -130 -74 -112 -63 -383 -221 -407 -237 -15 -11 -30 -19 -32
-19 -3 0 -51 -27 -107 -60 -55 -33 -103 -60 -105 -60 -3 0 -30 -16 -60 -35
-30 -19 -56 -35 -58 -35 -4 0 -138 -76 -176 -100 -8 -5 -46 -27 -85 -49 -38
-23 -92 -54 -120 -70 -27 -17 -61 -36 -75 -44 -54 -30 -316 -182 -408 -236
-29 -17 -54 -31 -56 -31 -2 0 -43 -24 -92 -53 -49 -29 -114 -67 -144 -84 -30
-17 -143 -81 -250 -143 -107 -62 -223 -129 -258 -149 -34 -20 -128 -74 -209
-121 -81 -47 -163 -94 -183 -105 -19 -11 -55 -32 -80 -47 -75 -44 -669 -387
-714 -412 -22 -13 -156 -90 -296 -171 -140 -81 -376 -217 -525 -303 -148 -85
-290 -167 -315 -182 -25 -15 -65 -39 -90 -52 -25 -14 -144 -82 -265 -152 -121
-71 -295 -171 -387 -225 -92 -53 -164 -99 -160 -102 4 -4 63 -39 132 -79 69
-39 132 -76 140 -80 8 -5 46 -27 84 -50 37 -22 69 -40 71 -40 2 0 95 -53 207
-118 111 -65 223 -130 248 -144 25 -14 158 -90 295 -170 138 -80 268 -156 290
-168 22 -12 112 -64 200 -115 193 -112 227 -132 330 -190 44 -25 87 -50 95
-55 17 -11 286 -167 340 -197 19 -11 109 -63 200 -115 91 -53 181 -105 200
-116 48 -27 374 -215 670 -387 135 -78 265 -153 290 -167 25 -14 113 -65 195
-113 83 -48 168 -97 190 -109 22 -12 101 -58 175 -101 305 -177 492 -285 496
-285 3 0 21 -11 42 -24 20 -12 125 -74 232 -136 252 -146 253 -146 298 -171
20 -12 42 -25 47 -29 6 -4 35 -21 65 -37 30 -17 210 -120 400 -230 521 -302
980 -567 1030 -595 25 -14 69 -39 97 -56 l53 -31 157 91 c87 50 172 99 188
108 17 9 89 51 160 92 72 42 146 85 165 96 19 11 62 35 95 54 129 75 382 221
415 240 74 43 430 249 462 267 18 11 44 26 58 34 47 25 765 439 810 467 25 15
126 73 225 130 99 57 191 110 205 119 14 8 34 21 45 27 65 36 150 85 405 232
157 91 357 207 445 257 89 51 276 159 415 240 140 81 273 158 295 171 23 12
123 70 224 128 101 58 187 106 192 106 5 0 9 5 9 10 0 6 4 10 10 10 5 0 47 22
92 49 124 73 260 151 264 151 2 0 27 15 56 33 29 19 78 47 108 64 111 61 896
516 923 535 15 11 27 16 27 12 0 -4 8 0 18 8 9 8 53 35 97 60 44 25 96 55 115
65 37 21 419 242 433 250 6 4 -446 273 -459 273 -2 0 -111 64 -154 90 -26 16
-123 72 -166 96 -22 13 -118 68 -213 123 -95 56 -174 101 -177 101 -2 0 -33
17 -67 38 -78 48 -538 315 -761 442 -17 9 -76 43 -131 75 -55 32 -109 63 -120
69 -11 6 -31 19 -45 27 -22 14 -763 441 -860 496 -19 11 -105 61 -190 110 -85
50 -238 139 -340 198 -102 59 -210 121 -240 137 -30 17 -59 34 -65 38 -5 4
-30 19 -55 32 -70 39 -273 157 -290 168 -8 6 -26 16 -40 22 -14 7 -60 34 -103
60 -43 27 -80 48 -82 48 -2 0 -48 26 -102 58 -54 32 -105 61 -113 65 -8 4 -24
13 -35 20 -54 33 -775 450 -860 497 -37 21 -81 46 -370 216 -55 32 -102 59
-105 59 -3 0 -16 8 -30 17 -29 19 -395 230 -460 266 -25 14 -49 28 -55 32 -5
4 -31 19 -57 33 -26 14 -117 67 -202 117 -86 49 -161 90 -168 90 -7 0 -33 -13
-58 -28z m-148 -1669 c0 -599 -1 -1095 -1 -1104 -1 -8 -20 -25 -43 -37 -24
-12 -64 -34 -90 -49 -57 -34 -254 -147 -323 -186 -27 -16 -67 -39 -87 -53 -21
-13 -40 -24 -42 -24 -3 0 -58 -31 -123 -69 -148 -87 -994 -575 -1048 -605 -22
-12 -139 -80 -260 -150 -121 -71 -235 -137 -253 -147 -127 -73 -190 -109 -372
-214 -113 -65 -236 -137 -275 -160 -38 -22 -77 -44 -85 -48 -8 -4 -31 -17 -50
-28 -50 -30 -1060 -613 -1088 -628 -20 -11 -31 -7 -95 30 -40 23 -92 53 -117
67 -25 13 -70 39 -100 57 -30 18 -71 42 -90 52 -19 11 -132 76 -250 145 -118
68 -327 189 -465 269 -137 79 -257 149 -267 154 -9 6 -30 17 -47 27 -17 9
-137 78 -266 153 -262 152 -248 136 -151 190 27 15 162 93 300 173 138 80 366
211 506 292 140 81 314 181 385 222 201 116 455 263 624 360 1244 718 1728
998 1761 1018 8 5 177 102 375 216 198 114 430 247 515 297 85 49 175 101 200
115 25 14 73 43 108 64 34 21 64 38 67 38 3 0 33 17 67 38 35 21 70 41 78 45
8 4 31 17 50 28 19 11 112 65 205 119 94 54 298 172 455 263 157 91 287 163
289 161 2 -2 4 -493 3 -1091z m628 976 c80 -46 159 -92 175 -101 17 -10 50
-29 75 -43 25 -14 52 -30 60 -35 15 -10 203 -118 283 -164 58 -32 372 -214
675 -389 139 -81 255 -147 258 -147 2 0 17 -9 32 -19 15 -10 176 -104 357
-209 182 -105 346 -199 365 -211 19 -11 42 -24 50 -28 8 -3 31 -16 50 -28 19
-12 55 -33 80 -47 67 -38 543 -313 635 -367 44 -26 87 -50 95 -54 8 -4 29 -15
45 -25 101 -62 277 -162 285 -162 6 0 10 -4 10 -10 0 -5 4 -10 10 -10 5 0 47
-22 92 -49 46 -27 101 -59 123 -72 109 -62 142 -81 170 -98 17 -10 77 -45 135
-78 58 -33 265 -152 460 -265 195 -113 416 -240 490 -283 74 -43 173 -100 220
-128 47 -27 110 -64 140 -80 30 -17 67 -38 82 -49 14 -10 28 -18 31 -18 2 0
88 -49 191 -109 l187 -109 -33 -20 c-32 -19 -325 -188 -398 -230 -19 -11 -75
-43 -125 -72 -103 -60 -95 -55 -315 -182 -321 -185 -576 -332 -695 -401 -66
-38 -136 -79 -155 -90 -19 -10 -70 -40 -114 -65 -71 -41 -81 -44 -100 -32 -26
17 -313 183 -376 217 -25 14 -65 38 -90 53 -25 15 -313 182 -640 371 -327 188
-694 400 -815 469 -121 70 -335 194 -475 275 -236 137 -314 181 -365 209 -11
6 -27 16 -35 22 -8 6 -40 25 -70 41 -30 17 -143 81 -250 143 -107 62 -337 195
-510 295 -173 100 -335 193 -360 207 -25 14 -69 40 -97 57 l-53 33 0 1105 0
1105 33 -20 c17 -11 97 -57 177 -103z m-307 -2519 c3 0 65 -36 140 -79 74 -43
154 -90 178 -103 70 -40 110 -63 167 -97 29 -17 57 -31 62 -31 6 0 10 -4 10
-10 0 -5 4 -10 9 -10 5 0 119 -64 253 -141 133 -78 349 -202 478 -277 129 -74
321 -184 425 -245 105 -60 205 -118 223 -128 18 -11 102 -59 185 -107 265
-154 491 -285 522 -302 43 -25 269 -154 420 -242 72 -42 216 -125 320 -185
358 -206 445 -257 442 -259 -1 -1 -117 -68 -257 -149 -140 -81 -329 -190 -420
-243 -144 -83 -262 -151 -390 -224 -35 -21 -180 -105 -212 -123 -9 -5 -41 -23
-70 -39 -29 -15 -60 -33 -68 -40 -8 -6 -24 -16 -35 -22 -46 -25 -432 -247
-455 -262 -14 -9 -27 -17 -30 -17 -3 0 -16 -8 -30 -16 -26 -16 -193 -113 -266
-155 -22 -12 -134 -77 -249 -143 -114 -67 -210 -121 -212 -121 -3 0 -17 -8
-31 -19 -15 -10 -47 -29 -72 -43 -45 -25 -93 -52 -152 -87 -459 -264 -618
-357 -643 -375 -16 -11 -32 -20 -35 -20 -3 1 -14 -4 -25 -11 -17 -11 -143 -83
-253 -146 -18 -11 -37 -19 -43 -19 -6 0 -63 31 -127 69 -64 37 -137 80 -162
93 -38 22 -578 334 -905 523 -55 32 -190 110 -300 173 -110 63 -326 188 -480
277 -297 172 -916 529 -975 562 -58 33 -194 112 -210 123 -8 5 -28 17 -45 26
-32 18 -738 425 -742 428 -2 2 51 33 542 316 121 70 436 252 700 405 264 153
496 286 515 297 19 11 80 46 135 78 55 32 116 67 135 78 19 11 123 70 230 132
159 92 364 211 605 350 17 9 116 67 220 127 105 60 280 161 390 225 110 64
216 125 235 136 19 11 82 47 139 80 l104 60 53 -34 c29 -19 55 -34 57 -34z"/>
</g>
</svg>
